<svg width="16" height="20" viewBox="0 0 16 20" fill="none" xmlns="http://www.w3.org/2000/svg">
<path d="M8.00024 19.6851C9.05439 19.6851 9.91687 18.8226 9.91687 17.7685H6.08362C6.08362 18.2768 6.28555 18.7643 6.64498 19.1237C7.00442 19.4832 7.49192 19.6851 8.00024 19.6851ZM13.7501 13.9352V9.14364C13.7501 6.20162 12.1785 3.73876 9.43771 3.08711V2.43545C9.43771 1.64006 8.79564 0.997986 8.00024 0.997986C7.20484 0.997986 6.56277 1.64006 6.56277 2.43545V3.08711C3.81242 3.73876 2.25037 6.19204 2.25037 9.14364V13.9352L0.33374 15.8518V16.8101H15.6667V15.8518L13.7501 13.9352Z" fill="white"/>
</svg>
