<svg width="22" height="15" viewBox="0 0 22 15" fill="none" xmlns="http://www.w3.org/2000/svg">
<path d="M1.375 0.625C0.960786 0.625 0.625 0.960786 0.625 1.375C0.625 1.78921 0.960786 2.125 1.375 2.125V0.625ZM20.625 2.125C21.0392 2.125 21.375 1.78921 21.375 1.375C21.375 0.960786 21.0392 0.625 20.625 0.625V2.125ZM1.375 6.75C0.960786 6.75 0.625 7.08579 0.625 7.5C0.625 7.91421 0.960786 8.25 1.375 8.25V6.75ZM20.625 8.25C21.0392 8.25 21.375 7.91421 21.375 7.5C21.375 7.08579 21.0392 6.75 20.625 6.75V8.25ZM1.375 12.875C0.960786 12.875 0.625 13.2108 0.625 13.625C0.625 14.0392 0.960786 14.375 1.375 14.375V12.875ZM20.625 14.375C21.0392 14.375 21.375 14.0392 21.375 13.625C21.375 13.2108 21.0392 12.875 20.625 12.875V14.375ZM1.375 2.125H20.625V0.625H1.375V2.125ZM1.375 8.25H20.625V6.75H1.375V8.25ZM1.375 14.375H20.625V12.875H1.375V14.375Z" fill="white"/>
</svg>
