<svg width="18" height="12" viewBox="0 0 18 12" fill="none" xmlns="http://www.w3.org/2000/svg">
<path d="M0.75 0C0.335786 0 0 0.335786 0 0.75C0 1.16421 0.335786 1.5 0.75 1.5V0ZM17.25 1.5C17.6642 1.5 18 1.16421 18 0.75C18 0.335786 17.6642 0 17.25 0V1.5ZM0.75 5.25C0.335786 5.25 0 5.58579 0 6C0 6.41421 0.335786 6.75 0.75 6.75V5.25ZM17.25 6.75C17.6642 6.75 18 6.41421 18 6C18 5.58579 17.6642 5.25 17.25 5.25V6.75ZM0.75 10.5C0.335786 10.5 0 10.8358 0 11.25C0 11.6642 0.335786 12 0.75 12V10.5ZM17.25 12C17.6642 12 18 11.6642 18 11.25C18 10.8358 17.6642 10.5 17.25 10.5V12ZM0.75 1.5H17.25V0H0.75V1.5ZM0.75 6.75H17.25V5.25H0.75V6.75ZM0.75 12H17.25V10.5H0.75V12Z" fill="white"/>
</svg>
