<svg width="24" height="24" viewBox="0 0 24 24" fill="none" xmlns="http://www.w3.org/2000/svg">
<path d="M12.625 12.625C12.625 12.9702 12.3452 13.25 12 13.25C11.6548 13.25 11.375 12.9702 11.375 12.625C11.375 12.2798 11.6548 12 12 12C12.3452 12 12.625 12.2798 12.625 12.625Z" fill="#B1BDCF"/>
<path d="M8.25 15.125C8.59518 15.125 8.875 14.8452 8.875 14.5C8.875 14.1548 8.59518 13.875 8.25 13.875C7.90482 13.875 7.625 14.1548 7.625 14.5C7.625 14.8452 7.90482 15.125 8.25 15.125Z" fill="#B1BDCF"/>
<path d="M8.875 16.375C8.875 16.7202 8.59518 17 8.25 17C7.90482 17 7.625 16.7202 7.625 16.375C7.625 16.0298 7.90482 15.75 8.25 15.75C8.59518 15.75 8.875 16.0298 8.875 16.375Z" fill="#B1BDCF"/>
<path d="M10.125 15.125C10.4702 15.125 10.75 14.8452 10.75 14.5C10.75 14.1548 10.4702 13.875 10.125 13.875C9.77982 13.875 9.5 14.1548 9.5 14.5C9.5 14.8452 9.77982 15.125 10.125 15.125Z" fill="#B1BDCF"/>
<path d="M10.75 16.375C10.75 16.7202 10.4702 17 10.125 17C9.77982 17 9.5 16.7202 9.5 16.375C9.5 16.0298 9.77982 15.75 10.125 15.75C10.4702 15.75 10.75 16.0298 10.75 16.375Z" fill="#B1BDCF"/>
<path d="M12 15.125C12.3452 15.125 12.625 14.8452 12.625 14.5C12.625 14.1548 12.3452 13.875 12 13.875C11.6548 13.875 11.375 14.1548 11.375 14.5C11.375 14.8452 11.6548 15.125 12 15.125Z" fill="#B1BDCF"/>
<path d="M12.625 16.375C12.625 16.7202 12.3452 17 12 17C11.6548 17 11.375 16.7202 11.375 16.375C11.375 16.0298 11.6548 15.75 12 15.75C12.3452 15.75 12.625 16.0298 12.625 16.375Z" fill="#B1BDCF"/>
<path d="M13.875 15.125C14.2202 15.125 14.5 14.8452 14.5 14.5C14.5 14.1548 14.2202 13.875 13.875 13.875C13.5298 13.875 13.25 14.1548 13.25 14.5C13.25 14.8452 13.5298 15.125 13.875 15.125Z" fill="#B1BDCF"/>
<path d="M14.5 16.375C14.5 16.7202 14.2202 17 13.875 17C13.5298 17 13.25 16.7202 13.25 16.375C13.25 16.0298 13.5298 15.75 13.875 15.75C14.2202 15.75 14.5 16.0298 14.5 16.375Z" fill="#B1BDCF"/>
<path d="M15.75 15.125C16.0952 15.125 16.375 14.8452 16.375 14.5C16.375 14.1548 16.0952 13.875 15.75 13.875C15.4048 13.875 15.125 14.1548 15.125 14.5C15.125 14.8452 15.4048 15.125 15.75 15.125Z" fill="#B1BDCF"/>
<path d="M14.5 12.625C14.5 12.9702 14.2202 13.25 13.875 13.25C13.5298 13.25 13.25 12.9702 13.25 12.625C13.25 12.2798 13.5298 12 13.875 12C14.2202 12 14.5 12.2798 14.5 12.625Z" fill="#B1BDCF"/>
<path d="M15.75 13.25C16.0952 13.25 16.375 12.9702 16.375 12.625C16.375 12.2798 16.0952 12 15.75 12C15.4048 12 15.125 12.2798 15.125 12.625C15.125 12.9702 15.4048 13.25 15.75 13.25Z" fill="#B1BDCF"/>
<path fill-rule="evenodd" clip-rule="evenodd" d="M7.625 3.875C7.97018 3.875 8.25 4.15482 8.25 4.5V5.75H15.75V4.5C15.75 4.15482 16.0298 3.875 16.375 3.875C16.7202 3.875 17 4.15482 17 4.5V5.75H17.625C19.0057 5.75 20.125 6.86929 20.125 8.25V17.625C20.125 19.0057 19.0057 20.125 17.625 20.125H6.375C4.99429 20.125 3.875 19.0057 3.875 17.625V8.25C3.875 6.86929 4.99429 5.75 6.375 5.75H7V4.5C7 4.15482 7.27982 3.875 7.625 3.875ZM18.875 11.375C18.875 10.6846 18.3154 10.125 17.625 10.125H6.375C5.68464 10.125 5.125 10.6846 5.125 11.375V17.625C5.125 18.3154 5.68464 18.875 6.375 18.875H17.625C18.3154 18.875 18.875 18.3154 18.875 17.625V11.375Z" fill="#B1BDCF"/>
</svg>
