<svg width="18" height="14" viewBox="0 0 18 14" fill="none" xmlns="http://www.w3.org/2000/svg">
<path fill-rule="evenodd" clip-rule="evenodd" d="M0.900391 5.2C0.900391 4.20589 1.70628 3.4 2.70039 3.4H3.53706C4.1389 3.4 4.70091 3.09922 5.03475 2.59846L5.76603 1.50154C6.09987 1.00078 6.66189 0.700001 7.26372 0.700001H10.7371C11.3389 0.700001 11.9009 1.00078 12.2348 1.50154L12.966 2.59846C13.2999 3.09922 13.8619 3.4 14.4637 3.4H15.3004C16.2945 3.4 17.1004 4.20589 17.1004 5.2V11.5C17.1004 12.4941 16.2945 13.3 15.3004 13.3H2.70039C1.70628 13.3 0.900391 12.4941 0.900391 11.5V5.2ZM13.0504 7.9C13.0504 10.1368 11.2371 11.95 9.00039 11.95C6.76364 11.95 4.95039 10.1368 4.95039 7.9C4.95039 5.66325 6.76364 3.85 9.00039 3.85C11.2371 3.85 13.0504 5.66325 13.0504 7.9ZM9.00039 10.6C10.4916 10.6 11.7004 9.39117 11.7004 7.9C11.7004 6.40883 10.4916 5.2 9.00039 5.2C7.50922 5.2 6.30039 6.40883 6.30039 7.9C6.30039 9.39117 7.50922 10.6 9.00039 10.6Z" fill="#0F172A"/>
</svg>
