<svg width="24" height="24" viewBox="0 0 24 24" fill="none" xmlns="http://www.w3.org/2000/svg">
<path fill-rule="evenodd" clip-rule="evenodd" d="M15.7501 5.73182V5.92081C16.5457 5.99365 17.3347 6.08942 18.1165 6.20748C18.4059 6.25119 18.6944 6.29796 18.9818 6.34775C19.3219 6.40666 19.5498 6.73014 19.4909 7.07025C19.432 7.41036 19.1085 7.63832 18.7684 7.5794C18.7104 7.56936 18.6524 7.55944 18.5943 7.54964L17.7564 18.4417C17.6562 19.7442 16.5701 20.75 15.2638 20.75H8.73641C7.43007 20.75 6.34397 19.7442 6.24377 18.4417L5.40592 7.54964C5.34783 7.55944 5.28978 7.56936 5.23178 7.5794C4.89167 7.63832 4.56819 7.41036 4.50927 7.07025C4.45036 6.73014 4.67831 6.40666 5.01843 6.34775C5.30584 6.29796 5.59429 6.25119 5.88373 6.20748C6.66548 6.08942 7.4545 5.99365 8.2501 5.92081V5.73182C8.2501 4.4281 9.26055 3.31515 10.5963 3.27242C11.0624 3.25751 11.5304 3.25 12.0001 3.25C12.4698 3.25 12.9378 3.25751 13.4039 3.27242C14.7397 3.31515 15.7501 4.4281 15.7501 5.73182ZM10.6363 4.52178C11.0891 4.5073 11.5437 4.5 12.0001 4.5C12.4565 4.5 12.9111 4.5073 13.3639 4.52178C13.9928 4.5419 14.5001 5.06994 14.5001 5.73182V5.82569C13.6731 5.77547 12.8396 5.75 12.0001 5.75C11.1607 5.75 10.3271 5.77547 9.5001 5.82569V5.73182C9.5001 5.06994 10.0074 4.5419 10.6363 4.52178ZM10.3406 9.47598C10.3273 9.13106 10.037 8.8622 9.69204 8.87546C9.34712 8.88873 9.07826 9.1791 9.09153 9.52402L9.37999 17.024C9.39325 17.3689 9.68362 17.6378 10.0285 17.6245C10.3735 17.6113 10.6423 17.3209 10.6291 16.976L10.3406 9.47598ZM14.9079 9.52402C14.9212 9.1791 14.6523 8.88873 14.3074 8.87546C13.9625 8.8622 13.6721 9.13106 13.6588 9.47598L13.3704 16.976C13.3571 17.3209 13.626 17.6113 13.9709 17.6245C14.3158 17.6378 14.6062 17.3689 14.6194 17.024L14.9079 9.52402Z" fill="#B1BDCF"/>
</svg>
