<svg width="15" height="14" viewBox="0 0 15 14" fill="none" xmlns="http://www.w3.org/2000/svg">
<path d="M7.23422 13.683L7.22932 13.6804L7.21233 13.6712C7.19786 13.6633 7.17717 13.6519 7.15067 13.6372C7.09768 13.6076 7.02142 13.5643 6.92521 13.5077C6.73286 13.3945 6.46037 13.2279 6.1344 13.0112C5.48354 12.5786 4.6139 11.9426 3.74194 11.1297C2.01635 9.52116 0.187988 7.13133 0.187988 4.1875C0.187988 1.99146 2.03569 0.25 4.26611 0.25C5.57777 0.25 6.75223 0.849316 7.50049 1.7887C8.24875 0.849316 9.4232 0.25 10.7349 0.25C12.9653 0.25 14.813 1.99146 14.813 4.1875C14.813 7.13133 12.9846 9.52116 11.259 11.1297C10.3871 11.9426 9.51743 12.5786 8.86658 13.0112C8.54061 13.2279 8.26811 13.3945 8.07577 13.5077C7.97956 13.5643 7.9033 13.6076 7.85031 13.6372C7.82381 13.6519 7.80312 13.6633 7.78865 13.6712L7.77166 13.6804L7.76676 13.683L7.76469 13.6841C7.59972 13.7717 7.40126 13.7717 7.23629 13.6841L7.23422 13.683Z" fill="#B1BDCF"/>
</svg>
