<svg width="19" height="19" viewBox="0 0 19 19" fill="none" xmlns="http://www.w3.org/2000/svg">
<path d="M10.6435 10.6043C8.49072 12.7571 6.18747 14.3058 4.30984 14.9962C3.76994 14.486 3.30528 13.8974 2.93413 13.2486C2.30216 12.1437 1.94067 10.864 1.94067 9.50012C1.94067 9.40984 1.94211 9.31991 1.94533 9.23035C2.08398 5.27875 5.256 2.09813 9.20437 1.94623C9.30254 1.94265 9.40106 1.94086 9.49994 1.94086C10.8638 1.94086 12.1435 2.30234 13.2484 2.93467C13.9051 3.30976 14.5002 3.78123 15.0139 4.32937C14.3124 6.19626 12.7737 8.47371 10.6435 10.6043Z" fill="white"/>
<path d="M17.059 9.50006C17.059 13.6749 13.6746 17.0593 9.49976 17.0593C9.00143 17.0593 8.51455 17.011 8.04344 16.9189C7.23664 16.7616 6.47534 16.4757 5.78247 16.0834C7.47811 15.2204 9.57249 13.6473 11.6096 11.6102C13.6466 9.57279 15.2201 7.47805 16.0831 5.78241C16.4754 6.47528 16.7613 7.23658 16.9186 8.04374C17.0107 8.51485 17.059 9.00172 17.059 9.50006Z" fill="white"/>
<path d="M16.9189 8.04369C16.7616 7.23653 16.4757 6.47523 16.0834 5.78235C16.8591 4.25904 17.0618 3.05744 16.5133 2.50894C16.2715 2.26712 15.9032 2.17146 15.4361 2.20657C14.8453 2.25028 14.0972 2.50321 13.2485 2.93455C11.5515 3.79688 9.45278 5.37179 7.41214 7.41243C5.37149 9.45308 3.79659 11.5514 2.93426 13.2485C2.51295 14.0775 2.26181 14.8105 2.2095 15.3944C2.16579 15.8813 2.26001 16.2647 2.509 16.5133C3.0575 17.0618 4.2591 16.8594 5.78277 16.0834C6.47565 16.4757 7.23695 16.7616 8.04375 16.9188C5.10961 18.5998 2.47784 19.0293 1.22429 17.7758C-0.726073 15.8254 1.39804 10.539 5.96871 5.96865C10.539 1.39798 15.8255 -0.726134 17.7758 1.22423C19.0294 2.47777 18.5998 5.10954 16.9189 8.04369Z" fill="white"/>
</svg>
