<svg width="66" height="66" viewBox="0 0 66 66" fill="none" xmlns="http://www.w3.org/2000/svg">
<rect width="66" height="66" rx="33" fill="#5D646B"/>
<path d="M46.4377 33.0001C46.4377 40.4219 40.4209 46.4387 32.9991 46.4387C32.1132 46.4387 31.2476 46.3527 30.4101 46.189C28.9758 45.9094 27.6224 45.4012 26.3906 44.7038C29.4051 43.1695 33.1284 40.3729 36.7498 36.7514C40.3712 33.1294 43.1685 29.4054 44.7028 26.391C45.4002 27.6228 45.9084 28.9762 46.188 30.4111C46.3517 31.2486 46.4377 32.1142 46.4377 33.0001Z" fill="#B1BDCF"/>
<path d="M46.1889 30.411C45.9093 28.9761 45.4011 27.6227 44.7037 26.3909C46.0826 23.6828 46.4431 21.5466 45.468 20.5715C45.0381 20.1416 44.3833 19.9716 43.5528 20.034C42.5026 20.1117 41.1727 20.5613 39.6639 21.3282C36.6469 22.8612 32.9159 25.661 29.2882 29.2888C25.6604 32.9166 22.8606 36.6469 21.3275 39.6639C20.5785 41.1377 20.1321 42.4408 20.0391 43.4789C19.9614 44.3445 20.1289 45.026 20.5715 45.468C21.5466 46.4431 23.6828 46.0832 26.3915 44.7037C27.6233 45.4011 28.9767 45.9093 30.411 46.1889C25.1948 49.1773 20.5161 49.9409 18.2876 47.7124C14.8203 44.2451 18.5965 34.847 26.7221 26.7221C34.847 18.5965 44.2451 14.8203 47.7124 18.2876C49.9409 20.5161 49.1773 25.1948 46.1889 30.411Z" fill="#B1BDCF"/>
<path d="M35.0321 34.9631C31.205 38.7903 27.1104 41.5436 23.7724 42.7709C22.8126 41.8639 21.9865 40.8175 21.3267 39.6641C20.2032 37.6999 19.5605 35.4249 19.5605 33.0002C19.5605 32.8397 19.5631 32.6798 19.5688 32.5206C19.8153 25.4956 25.4544 19.8412 32.4737 19.5712C32.6482 19.5648 32.8234 19.5616 32.9991 19.5616C35.4238 19.5616 37.6988 20.2042 39.663 21.3284C40.8305 21.9952 41.8884 22.8334 42.8017 23.8078C41.5546 27.1267 38.8191 31.1755 35.0321 34.9631Z" fill="#B1BDCF"/>
</svg>
