<svg width="52" height="52" viewBox="0 0 52 52" fill="none" xmlns="http://www.w3.org/2000/svg">
<path d="M19.024 8.60095C18.3894 7.96635 17.3606 7.96635 16.726 8.60095C16.0913 9.23555 16.0913 10.2644 16.726 10.899L19.024 8.60095ZM34.125 26L35.274 27.149C35.9087 26.5144 35.9087 25.4856 35.274 24.851L34.125 26ZM16.726 41.101C16.0913 41.7356 16.0913 42.7644 16.726 43.399C17.3606 44.0337 18.3894 44.0337 19.024 43.399L16.726 41.101ZM16.726 10.899L32.976 27.149L35.274 24.851L19.024 8.60095L16.726 10.899ZM32.976 24.851L16.726 41.101L19.024 43.399L35.274 27.149L32.976 24.851Z" fill="white"/>
</svg>
