<svg width="175" height="40" viewBox="0 0 175 40" fill="none" xmlns="http://www.w3.org/2000/svg">
<path d="M25.9007 38.29C12.603 41.2661 1.03463 38.8199 0.0651491 32.8294C-0.895314 26.8997 8.87616 19.7278 21.9574 16.6931C12.47 18.9613 5.60698 25.4726 6.56293 31.3751C7.53241 37.3656 16.1901 40.4612 25.8985 38.29H25.9007Z" fill="#2F7CF5"/>
<path d="M149.099 7.09751C162.397 4.34914 173.965 6.60826 174.935 12.1388C175.895 17.6107 166.124 24.2325 153.043 27.035C162.532 24.9405 169.393 18.9297 168.437 13.4803C167.468 7.94975 158.81 5.09091 149.102 7.09751H149.099Z" fill="#2F7CF5"/>
<path d="M134.988 6.14832C130.262 6.89459 129.667 7.49883 128.934 12.2966C128.199 7.49883 127.604 6.89459 122.88 6.14832C127.606 5.40204 128.201 4.79781 128.934 0C129.667 4.79781 130.264 5.40204 134.988 6.14832Z" fill="white"/>
<path d="M91.0905 37.0004C90.9462 36.7885 90.838 36.4548 90.7726 35.9903C90.7365 35.7649 90.714 35.5033 90.7005 35.217C90.6802 34.5068 90.6666 33.862 90.6599 33.2803C90.6554 32.915 90.6531 32.5746 90.6531 32.2612V20.5282C90.6531 17.4484 89.5799 15.3494 87.4403 14.2401C85.2984 13.1308 82.8499 12.574 80.0925 12.574C75.8561 12.574 72.8665 13.7013 71.126 15.9536C70.9681 16.1633 70.8216 16.3775 70.6818 16.6007C69.3786 18.7178 70.905 21.4684 73.3648 21.4684C74.5575 21.4684 75.7772 20.6049 76.3409 19.5384C76.4513 19.3265 76.5776 19.1349 76.7174 18.9613C77.3645 18.1789 78.467 17.4349 80.0204 17.4349C81.4092 17.4349 82.5095 17.5521 83.1746 18.0324C84.0719 18.6772 84.25 19.5114 84.25 20.5575C84.25 21.4188 83.621 22.2147 82.6808 22.6227C82.1555 22.8572 81.2875 23.0534 80.07 23.2112L77.8289 23.493C75.288 23.8222 73.358 24.3678 72.0503 25.1344C69.6605 26.5435 68.4678 28.8184 68.4678 31.9636C68.4678 33.7492 68.8691 35.2373 69.6762 36.4232C69.9648 36.8493 70.3053 37.2349 70.6953 37.5866C71.2364 38.0713 71.8362 38.4636 72.4855 38.7703C73.615 39.3046 74.9002 39.5684 76.3476 39.5684C78.1355 39.5684 79.7363 39.1513 81.1522 38.3238C81.6572 38.024 82.1397 37.6971 82.5929 37.3386C83.2039 36.8629 83.7743 36.3398 84.2951 35.7649C84.3335 36.2338 84.3808 36.6645 84.4372 37.05C84.4507 37.1402 84.4665 37.2304 84.48 37.3138C84.5589 37.767 84.6942 38.254 84.8949 38.7657H92.06V37.7805C91.6271 37.5776 91.3047 37.3205 91.0905 37.0072H91.095L91.0905 37.0004ZM76.6001 28.0947C77.1999 27.6641 78.1942 27.3011 79.583 26.9989L81.062 26.663C81.8015 26.4939 82.381 26.3113 82.8071 26.1174C83.2332 25.9212 83.6503 25.662 84.0652 25.3463V28.3201C84.0178 30.9919 83.3978 32.8316 82.2051 33.8417C81.0102 34.8517 79.7047 35.3545 78.2866 35.3545C77.3915 35.3545 76.6385 35.0479 76.0185 34.4324C75.3872 33.8327 75.0715 32.8519 75.0715 31.4879C75.0715 29.9592 75.5811 28.8274 76.5979 28.0969H76.6001V28.0947Z" fill="white"/>
<path d="M116.852 14.6459C115.194 13.2616 113.064 12.5694 110.462 12.5694C108.381 12.5694 106.663 13.088 105.308 14.1184C104.553 14.6955 103.752 15.6425 102.905 16.9569V13.2255H96.5488V38.7545H103.114V24.2934C103.114 22.7129 103.328 21.4143 103.761 20.3974C104.591 18.4743 106.124 17.5115 108.358 17.5115C110.178 17.5115 111.409 18.1676 112.056 19.4821C112.408 20.2035 112.588 21.2339 112.588 22.5799V38.7567H119.334V21.536C119.334 18.3277 118.506 16.0325 116.852 14.6482V14.6459Z" fill="white"/>
<path d="M125.505 13.1805V38.759H132.185V13.1805H125.505Z" fill="white"/>
<path d="M149.377 35.8009V35.7964C149.12 35.8641 148.669 35.9362 148.189 35.9362C147.566 35.9362 147.05 35.7288 146.558 35.208C145.862 34.4662 146.006 33.3366 146.006 32.2883V14.8917H150.096V13.4149H146.006V6.28134H139.49V13.4149H135.975V14.8917H139.49V33.9296C139.49 35.5236 139.858 36.705 140.6 37.4739C141.265 38.175 142.263 38.6553 143.6 38.91C144.807 39.14 145.544 39.2505 146.987 39.1017C147.956 39.0002 149.783 38.5583 150.502 37.6046V35.2486C150.182 35.4898 149.731 35.7085 149.377 35.8009Z" fill="white"/>
<path d="M102.9 13.2143H93.7261V14.8917H102.9V13.2143Z" fill="white"/>
<path d="M131.8 13.2143H122.626V14.8917H131.8V13.2143Z" fill="white"/>
<path d="M105.813 37.0793H93.7261V38.7567H105.813V37.0793Z" fill="white"/>
<path d="M122.089 37.0793H110.004V38.7567H122.089V37.0793Z" fill="white"/>
<path d="M134.977 37.0793H122.892V38.7567H134.977V37.0793Z" fill="white"/>
<path d="M28.4644 37.918V37.9992C28.6019 38.0217 28.7462 38.0375 28.886 38.0578C29.0258 38.0781 29.1678 38.0939 29.3121 38.1097H29.3166C31.1541 38.3329 33.2396 38.4839 35.5393 38.5718V37.9158H28.4644V37.918Z" fill="white"/>
<path d="M51.051 6.845C49.0151 5.0616 45.9308 4.16878 43.3042 4.16878H28.4644V37.918H35.5393V26.4669L41.5028 26.0633C46.4652 25.6935 48.2012 24.3272 50.3138 22.7377C52.0476 21.4301 54.221 18.7516 54.221 14.6685C54.221 10.9303 53.0847 8.62839 51.051 6.845ZM45.5611 19.4235C43.586 21.0445 41.151 21.7547 39.0024 22.0749L35.5393 22.4785V7.97907H38.9483C40.628 7.97907 43.3651 7.90241 45.4168 9.41751C46.7785 10.4253 47.4887 12.5198 47.4887 14.4318C47.4887 16.9118 46.6906 18.4946 45.5633 19.4235H45.5611Z" fill="white"/>
<path d="M36.1863 4.16878H25.6279V5.84621H36.1863V4.16878Z" fill="white"/>
<path d="M37.2798 37.0771H26.7214V38.7567H37.2798V37.0771Z" fill="white"/>
<path d="M66.4294 37.0771H55.8711V38.7567H66.4294V37.0771Z" fill="white"/>
<path d="M57.8552 38.7567H64.4432V34.3039C62.1818 34.5338 59.9836 34.7345 57.8552 34.9126V38.7567ZM57.8552 4.16878V5.84621H64.4432V4.16878H57.8552Z" fill="white"/>
<path d="M64.4432 5.84846V34.3061C62.1818 34.5361 59.9836 34.7368 57.8552 34.9149V5.84846H64.4432Z" fill="white"/>
<path d="M64.4432 5.84846H55.2625V4.17104H64.441V5.84846H64.4432Z" fill="white"/>
</svg>
